<svg xmlns="http://www.w3.org/2000/svg" xmlns:xlink="http://www.w3.org/1999/xlink" width="2000" zoomAndPan="magnify" viewBox="0 0 1500 1499.999933" height="2000" preserveAspectRatio="xMidYMid meet" version="1.0"><defs><linearGradient x1="-0.0573218" gradientTransform="matrix(120.00001, 0, 0, 93.049073, -69.922466, -93.049071)" y1="-0.0573218" x2="1.057277" gradientUnits="userSpaceOnUse" y2="1.057277" id="ff95a93a18"><stop stop-opacity="1" stop-color="rgb(0%, 32.159424%, 79.998779%)" offset="0"/><stop stop-opacity="1" stop-color="rgb(0%, 32.159424%, 79.998779%)" offset="0.03125"/><stop stop-opacity="1" stop-color="rgb(0%, 32.159424%, 79.998779%)" offset="0.046875"/><stop stop-opacity="1" stop-color="rgb(0%, 32.243347%, 79.911804%)" offset="0.0546875"/><stop stop-opacity="1" stop-color="rgb(0%, 32.528687%, 79.620361%)" offset="0.0585937"/><stop stop-opacity="1" stop-color="rgb(0%, 32.730103%, 79.414368%)" offset="0.0625"/><stop stop-opacity="1" stop-color="rgb(0%, 32.931519%, 79.206848%)" offset="0.0664062"/><stop stop-opacity="1" stop-color="rgb(0%, 33.132935%, 79.000854%)" offset="0.0703125"/><stop stop-opacity="1" stop-color="rgb(0%, 33.334351%, 78.793335%)" offset="0.0742188"/><stop stop-opacity="1" stop-color="rgb(0%, 33.535767%, 78.587341%)" offset="0.078125"/><stop stop-opacity="1" stop-color="rgb(0%, 33.737183%, 78.379822%)" offset="0.0820312"/><stop stop-opacity="1" stop-color="rgb(0%, 33.938599%, 78.173828%)" offset="0.0859375"/><stop stop-opacity="1" stop-color="rgb(0%, 34.140015%, 77.966309%)" offset="0.0898438"/><stop stop-opacity="1" stop-color="rgb(0%, 34.341431%, 77.760315%)" offset="0.09375"/><stop stop-opacity="1" stop-color="rgb(0%, 34.542847%, 77.554321%)" offset="0.0976562"/><stop stop-opacity="1" stop-color="rgb(0%, 34.744263%, 77.348328%)" offset="0.101562"/><stop stop-opacity="1" stop-color="rgb(0%, 34.945679%, 77.140808%)" offset="0.105469"/><stop stop-opacity="1" stop-color="rgb(0%, 35.147095%, 76.934814%)" offset="0.109375"/><stop stop-opacity="1" stop-color="rgb(0%, 35.348511%, 76.727295%)" offset="0.113281"/><stop stop-opacity="1" stop-color="rgb(0%, 35.549927%, 76.521301%)" offset="0.117187"/><stop stop-opacity="1" stop-color="rgb(0%, 35.751343%, 76.313782%)" offset="0.121094"/><stop stop-opacity="1" stop-color="rgb(0%, 35.952759%, 76.107788%)" offset="0.125"/><stop stop-opacity="1" stop-color="rgb(0%, 36.154175%, 75.900269%)" offset="0.128906"/><stop stop-opacity="1" stop-color="rgb(0%, 36.357117%, 75.694275%)" offset="0.132812"/><stop stop-opacity="1" stop-color="rgb(0%, 36.558533%, 75.488281%)" offset="0.136719"/><stop stop-opacity="1" stop-color="rgb(0%, 36.759949%, 75.282288%)" offset="0.140625"/><stop stop-opacity="1" stop-color="rgb(0%, 36.961365%, 75.074768%)" offset="0.144531"/><stop stop-opacity="1" stop-color="rgb(0%, 37.162781%, 74.868774%)" offset="0.148438"/><stop stop-opacity="1" stop-color="rgb(0%, 37.364197%, 74.661255%)" offset="0.152344"/><stop stop-opacity="1" stop-color="rgb(0%, 37.565613%, 74.455261%)" offset="0.15625"/><stop stop-opacity="1" stop-color="rgb(0%, 37.767029%, 74.247742%)" offset="0.160156"/><stop stop-opacity="1" stop-color="rgb(0%, 37.968445%, 74.041748%)" offset="0.164062"/><stop stop-opacity="1" stop-color="rgb(0%, 38.169861%, 73.835754%)" offset="0.167969"/><stop stop-opacity="1" stop-color="rgb(0%, 38.371277%, 73.629761%)" offset="0.171875"/><stop stop-opacity="1" stop-color="rgb(0%, 38.572693%, 73.422241%)" offset="0.175781"/><stop stop-opacity="1" stop-color="rgb(0%, 38.774109%, 73.216248%)" offset="0.179688"/><stop stop-opacity="1" stop-color="rgb(0%, 38.975525%, 73.008728%)" offset="0.183594"/><stop stop-opacity="1" stop-color="rgb(0%, 39.176941%, 72.802734%)" offset="0.1875"/><stop stop-opacity="1" stop-color="rgb(0%, 39.378357%, 72.595215%)" offset="0.191406"/><stop stop-opacity="1" stop-color="rgb(0%, 39.579773%, 72.389221%)" offset="0.195312"/><stop stop-opacity="1" stop-color="rgb(0%, 39.781189%, 72.181702%)" offset="0.199219"/><stop stop-opacity="1" stop-color="rgb(0%, 39.982605%, 71.975708%)" offset="0.203125"/><stop stop-opacity="1" stop-color="rgb(0%, 40.184021%, 71.769714%)" offset="0.207031"/><stop stop-opacity="1" stop-color="rgb(0%, 40.385437%, 71.563721%)" offset="0.210937"/><stop stop-opacity="1" stop-color="rgb(0%, 40.586853%, 71.356201%)" offset="0.214844"/><stop stop-opacity="1" stop-color="rgb(0%, 40.788269%, 71.150208%)" offset="0.21875"/><stop stop-opacity="1" stop-color="rgb(0%, 40.989685%, 70.942688%)" offset="0.222656"/><stop stop-opacity="1" stop-color="rgb(0%, 41.191101%, 70.736694%)" offset="0.226562"/><stop stop-opacity="1" stop-color="rgb(0%, 41.392517%, 70.529175%)" offset="0.230469"/><stop stop-opacity="1" stop-color="rgb(0%, 41.593933%, 70.323181%)" offset="0.234375"/><stop stop-opacity="1" stop-color="rgb(0%, 41.795349%, 70.115662%)" offset="0.238281"/><stop stop-opacity="1" stop-color="rgb(0%, 41.996765%, 69.909668%)" offset="0.242188"/><stop stop-opacity="1" stop-color="rgb(0%, 42.198181%, 69.703674%)" offset="0.246094"/><stop stop-opacity="1" stop-color="rgb(0%, 42.399597%, 69.497681%)" offset="0.25"/><stop stop-opacity="1" stop-color="rgb(0%, 42.601013%, 69.290161%)" offset="0.253906"/><stop stop-opacity="1" stop-color="rgb(0%, 42.802429%, 69.084167%)" offset="0.257812"/><stop stop-opacity="1" stop-color="rgb(0%, 43.003845%, 68.876648%)" offset="0.261719"/><stop stop-opacity="1" stop-color="rgb(0%, 43.205261%, 68.670654%)" offset="0.265625"/><stop stop-opacity="1" stop-color="rgb(0%, 43.406677%, 68.463135%)" offset="0.269531"/><stop stop-opacity="1" stop-color="rgb(0%, 43.608093%, 68.257141%)" offset="0.273438"/><stop stop-opacity="1" stop-color="rgb(0%, 43.809509%, 68.051147%)" offset="0.277344"/><stop stop-opacity="1" stop-color="rgb(0%, 44.012451%, 67.845154%)" offset="0.28125"/><stop stop-opacity="1" stop-color="rgb(0%, 44.213867%, 67.637634%)" offset="0.285156"/><stop stop-opacity="1" stop-color="rgb(0%, 44.415283%, 67.431641%)" offset="0.289062"/><stop stop-opacity="1" stop-color="rgb(0%, 44.616699%, 67.224121%)" offset="0.292969"/><stop stop-opacity="1" stop-color="rgb(0%, 44.818115%, 67.018127%)" offset="0.296875"/><stop stop-opacity="1" stop-color="rgb(0%, 45.019531%, 66.810608%)" offset="0.300781"/><stop stop-opacity="1" stop-color="rgb(0%, 45.220947%, 66.604614%)" offset="0.304688"/><stop stop-opacity="1" stop-color="rgb(0%, 45.422363%, 66.397095%)" offset="0.308594"/><stop stop-opacity="1" stop-color="rgb(0%, 45.623779%, 66.191101%)" offset="0.3125"/><stop stop-opacity="1" stop-color="rgb(0%, 45.825195%, 65.985107%)" offset="0.316406"/><stop stop-opacity="1" stop-color="rgb(0%, 46.026611%, 65.779114%)" offset="0.320312"/><stop stop-opacity="1" stop-color="rgb(0%, 46.228027%, 65.571594%)" offset="0.324219"/><stop stop-opacity="1" stop-color="rgb(0%, 46.429443%, 65.365601%)" offset="0.328125"/><stop stop-opacity="1" stop-color="rgb(0%, 46.630859%, 65.158081%)" offset="0.332031"/><stop stop-opacity="1" stop-color="rgb(0%, 46.832275%, 64.952087%)" offset="0.335938"/><stop stop-opacity="1" stop-color="rgb(0%, 47.033691%, 64.744568%)" offset="0.339844"/><stop stop-opacity="1" stop-color="rgb(0%, 47.235107%, 64.538574%)" offset="0.34375"/><stop stop-opacity="1" stop-color="rgb(0%, 47.436523%, 64.331055%)" offset="0.347656"/><stop stop-opacity="1" stop-color="rgb(0%, 47.637939%, 64.125061%)" offset="0.351562"/><stop stop-opacity="1" stop-color="rgb(0%, 47.839355%, 63.919067%)" offset="0.355469"/><stop stop-opacity="1" stop-color="rgb(0%, 48.040771%, 63.713074%)" offset="0.359375"/><stop stop-opacity="1" stop-color="rgb(0%, 48.242188%, 63.505554%)" offset="0.363281"/><stop stop-opacity="1" stop-color="rgb(0%, 48.443604%, 63.299561%)" offset="0.367188"/><stop stop-opacity="1" stop-color="rgb(0%, 48.64502%, 63.092041%)" offset="0.371094"/><stop stop-opacity="1" stop-color="rgb(0%, 48.846436%, 62.886047%)" offset="0.375"/><stop stop-opacity="1" stop-color="rgb(0%, 49.047852%, 62.678528%)" offset="0.378906"/><stop stop-opacity="1" stop-color="rgb(0%, 49.249268%, 62.472534%)" offset="0.382812"/><stop stop-opacity="1" stop-color="rgb(0%, 49.450684%, 62.266541%)" offset="0.386719"/><stop stop-opacity="1" stop-color="rgb(0%, 49.6521%, 62.060547%)" offset="0.390625"/><stop stop-opacity="1" stop-color="rgb(0%, 49.853516%, 61.853027%)" offset="0.394531"/><stop stop-opacity="1" stop-color="rgb(0%, 50.054932%, 61.647034%)" offset="0.398438"/><stop stop-opacity="1" stop-color="rgb(0%, 50.256348%, 61.439514%)" offset="0.402344"/><stop stop-opacity="1" stop-color="rgb(0%, 50.457764%, 61.233521%)" offset="0.40625"/><stop stop-opacity="1" stop-color="rgb(0%, 50.65918%, 61.026001%)" offset="0.410156"/><stop stop-opacity="1" stop-color="rgb(0%, 50.860596%, 60.820007%)" offset="0.414062"/><stop stop-opacity="1" stop-color="rgb(0%, 51.062012%, 60.612488%)" offset="0.417969"/><stop stop-opacity="1" stop-color="rgb(0%, 51.263428%, 60.406494%)" offset="0.421875"/><stop stop-opacity="1" stop-color="rgb(0%, 51.464844%, 60.2005%)" offset="0.425781"/><stop stop-opacity="1" stop-color="rgb(0%, 51.66626%, 59.994507%)" offset="0.429688"/><stop stop-opacity="1" stop-color="rgb(0%, 51.867676%, 59.786987%)" offset="0.433594"/><stop stop-opacity="1" stop-color="rgb(0%, 52.070618%, 59.580994%)" offset="0.4375"/><stop stop-opacity="1" stop-color="rgb(0%, 52.272034%, 59.373474%)" offset="0.441406"/><stop stop-opacity="1" stop-color="rgb(0%, 52.47345%, 59.16748%)" offset="0.445312"/><stop stop-opacity="1" stop-color="rgb(0%, 52.674866%, 58.959961%)" offset="0.449219"/><stop stop-opacity="1" stop-color="rgb(0%, 52.876282%, 58.753967%)" offset="0.453125"/><stop stop-opacity="1" stop-color="rgb(0%, 53.077698%, 58.547974%)" offset="0.457031"/><stop stop-opacity="1" stop-color="rgb(0%, 53.279114%, 58.34198%)" offset="0.460938"/><stop stop-opacity="1" stop-color="rgb(0%, 53.48053%, 58.13446%)" offset="0.464844"/><stop stop-opacity="1" stop-color="rgb(0%, 53.681946%, 57.928467%)" offset="0.46875"/><stop stop-opacity="1" stop-color="rgb(0%, 53.883362%, 57.720947%)" offset="0.472656"/><stop stop-opacity="1" stop-color="rgb(0%, 54.084778%, 57.514954%)" offset="0.476562"/><stop stop-opacity="1" stop-color="rgb(0%, 54.286194%, 57.307434%)" offset="0.480469"/><stop stop-opacity="1" stop-color="rgb(0%, 54.48761%, 57.10144%)" offset="0.484375"/><stop stop-opacity="1" stop-color="rgb(0%, 54.689026%, 56.893921%)" offset="0.488281"/><stop stop-opacity="1" stop-color="rgb(0%, 54.890442%, 56.687927%)" offset="0.492187"/><stop stop-opacity="1" stop-color="rgb(0%, 55.091858%, 56.481934%)" offset="0.496094"/><stop stop-opacity="1" stop-color="rgb(0%, 55.293274%, 56.27594%)" offset="0.5"/><stop stop-opacity="1" stop-color="rgb(0%, 55.49469%, 56.06842%)" offset="0.503906"/><stop stop-opacity="1" stop-color="rgb(0%, 55.696106%, 55.862427%)" offset="0.507812"/><stop stop-opacity="1" stop-color="rgb(0%, 55.897522%, 55.654907%)" offset="0.511719"/><stop stop-opacity="1" stop-color="rgb(0%, 56.098938%, 55.448914%)" offset="0.515625"/><stop stop-opacity="1" stop-color="rgb(0%, 56.300354%, 55.241394%)" offset="0.519531"/><stop stop-opacity="1" stop-color="rgb(0%, 56.50177%, 55.0354%)" offset="0.523438"/><stop stop-opacity="1" stop-color="rgb(0%, 56.703186%, 54.827881%)" offset="0.527344"/><stop stop-opacity="1" stop-color="rgb(0%, 56.904602%, 54.621887%)" offset="0.53125"/><stop stop-opacity="1" stop-color="rgb(0%, 57.106018%, 54.415894%)" offset="0.535156"/><stop stop-opacity="1" stop-color="rgb(0%, 57.307434%, 54.2099%)" offset="0.539062"/><stop stop-opacity="1" stop-color="rgb(0%, 57.50885%, 54.00238%)" offset="0.542969"/><stop stop-opacity="1" stop-color="rgb(0%, 57.710266%, 53.796387%)" offset="0.546875"/><stop stop-opacity="1" stop-color="rgb(0%, 57.911682%, 53.588867%)" offset="0.550781"/><stop stop-opacity="1" stop-color="rgb(0%, 58.113098%, 53.382874%)" offset="0.554688"/><stop stop-opacity="1" stop-color="rgb(0%, 58.314514%, 53.175354%)" offset="0.558594"/><stop stop-opacity="1" stop-color="rgb(0%, 58.51593%, 52.96936%)" offset="0.5625"/><stop stop-opacity="1" stop-color="rgb(0%, 58.717346%, 52.763367%)" offset="0.566406"/><stop stop-opacity="1" stop-color="rgb(0%, 58.918762%, 52.557373%)" offset="0.570312"/><stop stop-opacity="1" stop-color="rgb(0%, 59.120178%, 52.349854%)" offset="0.574219"/><stop stop-opacity="1" stop-color="rgb(0%, 59.321594%, 52.14386%)" offset="0.578125"/><stop stop-opacity="1" stop-color="rgb(0%, 59.52301%, 51.93634%)" offset="0.582031"/><stop stop-opacity="1" stop-color="rgb(0%, 59.725952%, 51.730347%)" offset="0.585938"/><stop stop-opacity="1" stop-color="rgb(0%, 59.927368%, 51.522827%)" offset="0.589844"/><stop stop-opacity="1" stop-color="rgb(0%, 60.128784%, 51.316833%)" offset="0.59375"/><stop stop-opacity="1" stop-color="rgb(0%, 60.3302%, 51.109314%)" offset="0.597656"/><stop stop-opacity="1" stop-color="rgb(0%, 60.531616%, 50.90332%)" offset="0.601562"/><stop stop-opacity="1" stop-color="rgb(0%, 60.733032%, 50.697327%)" offset="0.605469"/><stop stop-opacity="1" stop-color="rgb(0%, 60.934448%, 50.491333%)" offset="0.609375"/><stop stop-opacity="1" stop-color="rgb(0%, 61.135864%, 50.283813%)" offset="0.613281"/><stop stop-opacity="1" stop-color="rgb(0%, 61.33728%, 50.07782%)" offset="0.617188"/><stop stop-opacity="1" stop-color="rgb(0%, 61.538696%, 49.8703%)" offset="0.621094"/><stop stop-opacity="1" stop-color="rgb(0%, 61.740112%, 49.664307%)" offset="0.625"/><stop stop-opacity="1" stop-color="rgb(0%, 61.941528%, 49.456787%)" offset="0.628906"/><stop stop-opacity="1" stop-color="rgb(0%, 62.142944%, 49.250793%)" offset="0.632812"/><stop stop-opacity="1" stop-color="rgb(0%, 62.34436%, 49.043274%)" offset="0.636719"/><stop stop-opacity="1" stop-color="rgb(0%, 62.545776%, 48.83728%)" offset="0.640625"/><stop stop-opacity="1" stop-color="rgb(0%, 62.747192%, 48.631287%)" offset="0.644531"/><stop stop-opacity="1" stop-color="rgb(0%, 62.948608%, 48.425293%)" offset="0.648438"/><stop stop-opacity="1" stop-color="rgb(0%, 63.150024%, 48.217773%)" offset="0.652344"/><stop stop-opacity="1" stop-color="rgb(0%, 63.35144%, 48.01178%)" offset="0.65625"/><stop stop-opacity="1" stop-color="rgb(0%, 63.552856%, 47.80426%)" offset="0.660156"/><stop stop-opacity="1" stop-color="rgb(0%, 63.754272%, 47.598267%)" offset="0.664062"/><stop stop-opacity="1" stop-color="rgb(0%, 63.955688%, 47.390747%)" offset="0.667969"/><stop stop-opacity="1" stop-color="rgb(0%, 64.157104%, 47.184753%)" offset="0.671875"/><stop stop-opacity="1" stop-color="rgb(0%, 64.358521%, 46.97876%)" offset="0.675781"/><stop stop-opacity="1" stop-color="rgb(0%, 64.559937%, 46.772766%)" offset="0.679688"/><stop stop-opacity="1" stop-color="rgb(0%, 64.761353%, 46.565247%)" offset="0.683594"/><stop stop-opacity="1" stop-color="rgb(0%, 64.962769%, 46.359253%)" offset="0.6875"/><stop stop-opacity="1" stop-color="rgb(0%, 65.164185%, 46.151733%)" offset="0.691406"/><stop stop-opacity="1" stop-color="rgb(0%, 65.365601%, 45.94574%)" offset="0.695312"/><stop stop-opacity="1" stop-color="rgb(0%, 65.567017%, 45.73822%)" offset="0.699219"/><stop stop-opacity="1" stop-color="rgb(0%, 65.768433%, 45.532227%)" offset="0.703125"/><stop stop-opacity="1" stop-color="rgb(0%, 65.969849%, 45.324707%)" offset="0.707031"/><stop stop-opacity="1" stop-color="rgb(0%, 66.171265%, 45.118713%)" offset="0.710938"/><stop stop-opacity="1" stop-color="rgb(0%, 66.372681%, 44.91272%)" offset="0.714844"/><stop stop-opacity="1" stop-color="rgb(0%, 66.574097%, 44.706726%)" offset="0.71875"/><stop stop-opacity="1" stop-color="rgb(0%, 66.775513%, 44.499207%)" offset="0.722656"/><stop stop-opacity="1" stop-color="rgb(0%, 66.976929%, 44.293213%)" offset="0.726562"/><stop stop-opacity="1" stop-color="rgb(0%, 67.178345%, 44.085693%)" offset="0.730469"/><stop stop-opacity="1" stop-color="rgb(0%, 67.379761%, 43.8797%)" offset="0.734375"/><stop stop-opacity="1" stop-color="rgb(0%, 67.581177%, 43.67218%)" offset="0.738281"/><stop stop-opacity="1" stop-color="rgb(0%, 67.784119%, 43.466187%)" offset="0.742188"/><stop stop-opacity="1" stop-color="rgb(0%, 67.985535%, 43.258667%)" offset="0.746094"/><stop stop-opacity="1" stop-color="rgb(0%, 68.186951%, 43.052673%)" offset="0.75"/><stop stop-opacity="1" stop-color="rgb(0%, 68.388367%, 42.84668%)" offset="0.753906"/><stop stop-opacity="1" stop-color="rgb(0%, 68.589783%, 42.640686%)" offset="0.757812"/><stop stop-opacity="1" stop-color="rgb(0%, 68.791199%, 42.433167%)" offset="0.761719"/><stop stop-opacity="1" stop-color="rgb(0%, 68.992615%, 42.227173%)" offset="0.765625"/><stop stop-opacity="1" stop-color="rgb(0%, 69.194031%, 42.019653%)" offset="0.769531"/><stop stop-opacity="1" stop-color="rgb(0%, 69.395447%, 41.81366%)" offset="0.773438"/><stop stop-opacity="1" stop-color="rgb(0%, 69.596863%, 41.60614%)" offset="0.777344"/><stop stop-opacity="1" stop-color="rgb(0%, 69.798279%, 41.400146%)" offset="0.78125"/><stop stop-opacity="1" stop-color="rgb(0%, 69.999695%, 41.194153%)" offset="0.785156"/><stop stop-opacity="1" stop-color="rgb(0%, 70.201111%, 40.988159%)" offset="0.789062"/><stop stop-opacity="1" stop-color="rgb(0%, 70.402527%, 40.78064%)" offset="0.792969"/><stop stop-opacity="1" stop-color="rgb(0%, 70.603943%, 40.574646%)" offset="0.796875"/><stop stop-opacity="1" stop-color="rgb(0%, 70.805359%, 40.367126%)" offset="0.800781"/><stop stop-opacity="1" stop-color="rgb(0%, 71.006775%, 40.161133%)" offset="0.804688"/><stop stop-opacity="1" stop-color="rgb(0%, 71.208191%, 39.953613%)" offset="0.808594"/><stop stop-opacity="1" stop-color="rgb(0%, 71.409607%, 39.74762%)" offset="0.8125"/><stop stop-opacity="1" stop-color="rgb(0%, 71.611023%, 39.5401%)" offset="0.816406"/><stop stop-opacity="1" stop-color="rgb(0%, 71.812439%, 39.334106%)" offset="0.820312"/><stop stop-opacity="1" stop-color="rgb(0%, 72.013855%, 39.128113%)" offset="0.824219"/><stop stop-opacity="1" stop-color="rgb(0%, 72.215271%, 38.922119%)" offset="0.828125"/><stop stop-opacity="1" stop-color="rgb(0%, 72.416687%, 38.7146%)" offset="0.832031"/><stop stop-opacity="1" stop-color="rgb(0%, 72.618103%, 38.508606%)" offset="0.835938"/><stop stop-opacity="1" stop-color="rgb(0%, 72.819519%, 38.301086%)" offset="0.839844"/><stop stop-opacity="1" stop-color="rgb(0%, 73.020935%, 38.095093%)" offset="0.84375"/><stop stop-opacity="1" stop-color="rgb(0%, 73.222351%, 37.887573%)" offset="0.847656"/><stop stop-opacity="1" stop-color="rgb(0%, 73.423767%, 37.68158%)" offset="0.851562"/><stop stop-opacity="1" stop-color="rgb(0%, 73.625183%, 37.47406%)" offset="0.855469"/><stop stop-opacity="1" stop-color="rgb(0%, 73.826599%, 37.268066%)" offset="0.859375"/><stop stop-opacity="1" stop-color="rgb(0%, 74.028015%, 37.062073%)" offset="0.863281"/><stop stop-opacity="1" stop-color="rgb(0%, 74.229431%, 36.856079%)" offset="0.867187"/><stop stop-opacity="1" stop-color="rgb(0%, 74.430847%, 36.64856%)" offset="0.871094"/><stop stop-opacity="1" stop-color="rgb(0%, 74.632263%, 36.442566%)" offset="0.875"/><stop stop-opacity="1" stop-color="rgb(0%, 74.833679%, 36.235046%)" offset="0.878906"/><stop stop-opacity="1" stop-color="rgb(0%, 75.035095%, 36.029053%)" offset="0.882812"/><stop stop-opacity="1" stop-color="rgb(0%, 75.236511%, 35.821533%)" offset="0.886719"/><stop stop-opacity="1" stop-color="rgb(0%, 75.439453%, 35.61554%)" offset="0.890625"/><stop stop-opacity="1" stop-color="rgb(0%, 75.640869%, 35.409546%)" offset="0.894531"/><stop stop-opacity="1" stop-color="rgb(0%, 75.842285%, 35.203552%)" offset="0.898437"/><stop stop-opacity="1" stop-color="rgb(0%, 76.043701%, 34.996033%)" offset="0.902344"/><stop stop-opacity="1" stop-color="rgb(0%, 76.245117%, 34.790039%)" offset="0.90625"/><stop stop-opacity="1" stop-color="rgb(0%, 76.446533%, 34.58252%)" offset="0.910156"/><stop stop-opacity="1" stop-color="rgb(0%, 76.647949%, 34.376526%)" offset="0.914062"/><stop stop-opacity="1" stop-color="rgb(0%, 76.849365%, 34.169006%)" offset="0.917969"/><stop stop-opacity="1" stop-color="rgb(0%, 77.050781%, 33.963013%)" offset="0.921875"/><stop stop-opacity="1" stop-color="rgb(0%, 77.252197%, 33.755493%)" offset="0.925781"/><stop stop-opacity="1" stop-color="rgb(0%, 77.453613%, 33.5495%)" offset="0.929688"/><stop stop-opacity="1" stop-color="rgb(0%, 77.655029%, 33.343506%)" offset="0.933594"/><stop stop-opacity="1" stop-color="rgb(0%, 77.856445%, 33.137512%)" offset="0.9375"/><stop stop-opacity="1" stop-color="rgb(0%, 78.057861%, 32.929993%)" offset="0.941406"/><stop stop-opacity="1" stop-color="rgb(0%, 78.259277%, 32.723999%)" offset="0.945312"/><stop stop-opacity="1" stop-color="rgb(0%, 78.343201%, 32.635498%)" offset="0.953125"/><stop stop-opacity="1" stop-color="rgb(0%, 78.42865%, 32.548523%)" offset="0.96875"/><stop stop-opacity="1" stop-color="rgb(0%, 78.42865%, 32.548523%)" offset="1"/></linearGradient></defs><path stroke-linecap="round" transform="matrix(8.095493, 0, 0, 8.094374, 820.060163, 1014.140053)" fill="none" stroke-linejoin="miter" d="M -59.999821 0.0000707098 C -60.65026 -0.984892 -61.270782 -1.988675 -61.861389 -3.010315 C -62.452478 -4.031954 -63.012685 -5.070001 -63.542494 -6.124939 C -64.07182 -7.179877 -64.570265 -8.249293 -65.036381 -9.333186 C -65.502979 -10.417562 -65.937248 -11.514485 -66.339189 -12.623955 C -66.740647 -13.733908 -67.109293 -14.854478 -67.445128 -15.986148 C -67.780963 -17.117817 -68.083022 -18.258173 -68.351304 -19.407698 C -68.619586 -20.556741 -68.853609 -21.713022 -69.053855 -22.876543 C -69.254102 -24.03958 -69.419607 -25.207444 -69.550853 -26.380616 C -69.682098 -27.553306 -69.778603 -28.729373 -69.840365 -29.907854 C -69.902128 -31.086817 -69.929149 -32.266262 -69.920947 -33.446191 C -69.913226 -34.626602 -69.870764 -35.805565 -69.793561 -36.98308 C -69.715875 -38.161078 -69.60393 -39.335698 -69.457243 -40.506457 C -69.310557 -41.677698 -69.129611 -42.843632 -68.913924 -44.003774 C -68.698237 -45.164399 -68.448773 -46.317302 -68.165533 -47.462966 C -67.88181 -48.608631 -67.564794 -49.745126 -67.214001 -50.87197 C -66.86369 -51.999296 -66.480085 -53.11504 -66.063669 -54.219202 C -65.647253 -55.323364 -65.198508 -56.414496 -64.717434 -57.492598 C -64.236842 -58.5707 -63.724405 -59.63336 -63.181085 -60.681059 C -62.637766 -61.728758 -62.063565 -62.759084 -61.458966 -63.773002 C -60.854849 -64.786919 -60.221298 -65.782016 -59.557831 -66.758292 C -58.894846 -67.734569 -58.203393 -68.690576 -57.483953 -69.626314 C -56.764513 -70.562053 -56.018053 -71.475593 -55.244571 -72.366933 C -54.471088 -73.258756 -53.672033 -74.12645 -52.847403 -74.970979 C -52.022774 -75.815509 -51.174019 -76.634461 -50.301137 -77.428801 C -49.427773 -78.223142 -48.532213 -78.990939 -47.613974 -79.732678 C -46.695736 -80.473933 -45.756266 -81.187681 -44.796049 -81.873922 C -43.835348 -82.55968 -42.855829 -83.216965 -41.856527 -83.844812 C -40.857225 -84.473142 -39.84007 -85.071551 -38.805543 -85.639558 C -37.7715 -86.207564 -36.72105 -86.744685 -35.654677 -87.25092 C -34.588305 -87.757155 -33.508422 -88.231539 -32.414063 -88.674073 C -31.319704 -89.116606 -30.213282 -89.526324 -29.095279 -89.903225 C -27.976794 -90.280609 -26.848176 -90.624212 -25.709425 -90.934999 C -24.570675 -91.245303 -23.424203 -91.522309 -22.269047 -91.76505 C -21.11389 -92.007792 -19.952943 -92.216271 -18.785241 -92.390967 C -17.618021 -92.565182 -16.446459 -92.705132 -15.271036 -92.810337 C -14.095614 -92.915541 -12.917779 -92.985999 -11.738013 -93.02171 C -10.558248 -93.057422 -9.378483 -93.058387 -8.198718 -93.024123 C -7.018953 -92.990342 -5.841117 -92.921815 -4.665695 -92.818541 C -3.48979 -92.714784 -2.318227 -92.576764 -1.150525 -92.40448 C 0.017177 -92.231713 1.178606 -92.025166 2.333763 -91.783871 C 3.489402 -91.542577 4.636356 -91.267985 5.775589 -90.959128 C 6.914823 -90.650272 8.043923 -90.308117 9.162891 -89.932663 C 10.281858 -89.557209 11.388763 -89.149422 12.483604 -88.708337 C 13.578446 -88.267733 14.659294 -87.794797 15.726632 -87.290492 C 16.793487 -86.785705 17.844419 -86.250515 18.87991 -85.683956 C 19.915401 -85.117397 20.933039 -84.520436 21.933307 -83.894036 C 22.933574 -83.267154 23.91454 -82.611799 24.875723 -81.927006 C 25.837389 -81.242696 26.777823 -80.530396 27.697509 -79.790588 C 28.616713 -79.050298 29.51372 -78.283948 30.388049 -77.491055 C 31.261896 -76.698163 32.112099 -75.879693 32.938176 -75.036611 C 33.764253 -74.19353 34.564274 -73.326801 35.339203 -72.436426 C 36.114133 -71.546051 36.862041 -70.633959 37.582929 -69.699185 C 38.303816 -68.764894 38.996717 -67.809852 39.661149 -66.834541 C 40.325581 -65.859231 40.961062 -64.865099 41.567109 -63.852146 C 42.173156 -62.839193 42.748322 -61.80935 43.293571 -60.762616 C 43.838821 -59.715882 44.352706 -58.653705 44.835228 -57.576568 C 45.317749 -56.499431 45.767942 -55.409265 46.186288 -54.305585 C 46.604152 -53.201906 46.989204 -52.086644 47.341927 -50.960283 C 47.694168 -49.83344 48.013115 -48.69791 48.298285 -47.552728 C 48.583455 -46.407063 48.834849 -45.254643 49.051984 -44.0945 C 49.269601 -42.934358 49.452477 -41.768908 49.600611 -40.598149 C 49.749227 -39.426907 49.863102 -38.25277 49.942236 -37.075254 C 50.02137 -35.897739 50.065761 -34.718776 50.075412 -33.538365 C 50.085062 -32.358437 50.059971 -31.178508 50.000139 -30.000028 " stroke="url(#ff95a93a18)" stroke-width="12" stroke-miterlimit="4"/><path fill="#00c853" d="M 1224.835938 649.894531 L 1370.554688 836.0625 L 1143.878906 852.253906 Z M 1224.835938 649.894531 " fill-opacity="1" fill-rule="nonzero"/><path fill="#0052cc" d="M 617.671875 1014.140625 L 650.054688 1014.140625 C 650.851562 1014.140625 651.644531 1014.179688 652.433594 1014.257812 C 653.226562 1014.335938 654.011719 1014.453125 654.792969 1014.605469 C 655.574219 1014.761719 656.34375 1014.953125 657.105469 1015.1875 C 657.867188 1015.417969 658.613281 1015.683594 659.347656 1015.988281 C 660.082031 1016.292969 660.800781 1016.632812 661.503906 1017.007812 C 662.203125 1017.382812 662.886719 1017.789062 663.546875 1018.234375 C 664.210938 1018.675781 664.847656 1019.148438 665.460938 1019.652344 C 666.078125 1020.15625 666.664062 1020.691406 667.226562 1021.253906 C 667.789062 1021.816406 668.324219 1022.402344 668.828125 1023.019531 C 669.332031 1023.632812 669.804688 1024.269531 670.25 1024.933594 C 670.691406 1025.59375 671.097656 1026.273438 671.472656 1026.976562 C 671.847656 1027.675781 672.1875 1028.394531 672.492188 1029.128906 C 672.796875 1029.863281 673.066406 1030.613281 673.296875 1031.375 C 673.527344 1032.136719 673.71875 1032.90625 673.875 1033.6875 C 674.03125 1034.464844 674.144531 1035.25 674.222656 1036.042969 C 674.300781 1036.835938 674.339844 1037.628906 674.339844 1038.421875 L 674.339844 1192.214844 C 674.339844 1193.011719 674.300781 1193.804688 674.222656 1194.597656 C 674.144531 1195.386719 674.03125 1196.171875 673.875 1196.953125 C 673.71875 1197.734375 673.527344 1198.503906 673.296875 1199.265625 C 673.066406 1200.027344 672.796875 1200.773438 672.492188 1201.507812 C 672.1875 1202.242188 671.847656 1202.960938 671.472656 1203.664062 C 671.097656 1204.363281 670.691406 1205.046875 670.25 1205.707031 C 669.804688 1206.367188 669.332031 1207.007812 668.828125 1207.621094 C 668.324219 1208.234375 667.789062 1208.824219 667.226562 1209.386719 C 666.664062 1209.949219 666.078125 1210.484375 665.460938 1210.988281 C 664.847656 1211.492188 664.210938 1211.964844 663.546875 1212.40625 C 662.886719 1212.847656 662.203125 1213.257812 661.503906 1213.632812 C 660.800781 1214.007812 660.082031 1214.347656 659.347656 1214.652344 C 658.613281 1214.957031 657.867188 1215.222656 657.105469 1215.453125 C 656.34375 1215.683594 655.574219 1215.878906 654.792969 1216.03125 C 654.011719 1216.1875 653.226562 1216.304688 652.433594 1216.382812 C 651.644531 1216.460938 650.851562 1216.5 650.054688 1216.5 L 617.671875 1216.5 C 616.878906 1216.5 616.082031 1216.460938 615.292969 1216.382812 C 614.5 1216.304688 613.714844 1216.1875 612.933594 1216.03125 C 612.15625 1215.878906 611.382812 1215.683594 610.621094 1215.453125 C 609.863281 1215.222656 609.113281 1214.957031 608.378906 1214.652344 C 607.644531 1214.347656 606.925781 1214.007812 606.222656 1213.632812 C 605.523438 1213.257812 604.839844 1212.847656 604.179688 1212.40625 C 603.519531 1211.964844 602.878906 1211.492188 602.265625 1210.988281 C 601.652344 1210.484375 601.0625 1209.949219 600.5 1209.386719 C 599.9375 1208.824219 599.402344 1208.234375 598.898438 1207.621094 C 598.394531 1207.007812 597.921875 1206.367188 597.480469 1205.707031 C 597.039062 1205.046875 596.628906 1204.363281 596.253906 1203.664062 C 595.878906 1202.960938 595.539062 1202.242188 595.234375 1201.507812 C 594.929688 1200.773438 594.664062 1200.027344 594.433594 1199.265625 C 594.203125 1198.503906 594.007812 1197.734375 593.851562 1196.953125 C 593.699219 1196.171875 593.582031 1195.386719 593.503906 1194.597656 C 593.425781 1193.804688 593.386719 1193.011719 593.386719 1192.214844 L 593.386719 1038.421875 C 593.386719 1037.628906 593.425781 1036.835938 593.503906 1036.042969 C 593.582031 1035.25 593.699219 1034.464844 593.851562 1033.6875 C 594.007812 1032.90625 594.203125 1032.136719 594.433594 1031.375 C 594.664062 1030.613281 594.929688 1029.863281 595.234375 1029.128906 C 595.539062 1028.394531 595.878906 1027.675781 596.253906 1026.976562 C 596.628906 1026.273438 597.039062 1025.59375 597.480469 1024.933594 C 597.921875 1024.269531 598.394531 1023.632812 598.898438 1023.019531 C 599.402344 1022.402344 599.9375 1021.816406 600.5 1021.253906 C 601.0625 1020.691406 601.652344 1020.15625 602.265625 1019.652344 C 602.878906 1019.148438 603.519531 1018.675781 604.179688 1018.234375 C 604.839844 1017.789062 605.523438 1017.382812 606.222656 1017.007812 C 606.925781 1016.632812 607.644531 1016.292969 608.378906 1015.988281 C 609.113281 1015.683594 609.863281 1015.417969 610.621094 1015.1875 C 611.382812 1014.953125 612.15625 1014.761719 612.933594 1014.605469 C 613.714844 1014.453125 614.5 1014.335938 615.292969 1014.257812 C 616.082031 1014.179688 616.878906 1014.140625 617.671875 1014.140625 Z M 617.671875 1014.140625 " fill-opacity="1" fill-rule="nonzero"/><path fill="#0052cc" d="M 747.199219 917.007812 L 779.582031 917.007812 C 780.378906 917.007812 781.171875 917.046875 781.964844 917.125 C 782.753906 917.203125 783.539062 917.320312 784.320312 917.472656 C 785.101562 917.628906 785.871094 917.824219 786.632812 918.054688 C 787.394531 918.285156 788.140625 918.550781 788.875 918.855469 C 789.613281 919.160156 790.328125 919.5 791.03125 919.875 C 791.734375 920.25 792.414062 920.65625 793.074219 921.101562 C 793.738281 921.542969 794.375 922.015625 794.988281 922.519531 C 795.605469 923.023438 796.195312 923.558594 796.753906 924.121094 C 797.316406 924.683594 797.851562 925.269531 798.355469 925.886719 C 798.859375 926.5 799.335938 927.136719 799.777344 927.800781 C 800.21875 928.460938 800.625 929.140625 801 929.84375 C 801.375 930.546875 801.714844 931.261719 802.019531 931.996094 C 802.324219 932.734375 802.59375 933.480469 802.824219 934.242188 C 803.054688 935.003906 803.246094 935.773438 803.402344 936.554688 C 803.558594 937.332031 803.675781 938.117188 803.753906 938.910156 C 803.832031 939.703125 803.871094 940.496094 803.871094 941.289062 L 803.871094 1192.214844 C 803.871094 1193.011719 803.832031 1193.804688 803.753906 1194.597656 C 803.675781 1195.386719 803.558594 1196.171875 803.402344 1196.953125 C 803.246094 1197.734375 803.054688 1198.503906 802.824219 1199.265625 C 802.59375 1200.027344 802.324219 1200.773438 802.019531 1201.507812 C 801.714844 1202.242188 801.375 1202.960938 801 1203.664062 C 800.625 1204.363281 800.21875 1205.046875 799.777344 1205.707031 C 799.335938 1206.367188 798.859375 1207.007812 798.355469 1207.621094 C 797.851562 1208.234375 797.316406 1208.824219 796.753906 1209.386719 C 796.195312 1209.949219 795.605469 1210.484375 794.988281 1210.988281 C 794.375 1211.492188 793.738281 1211.964844 793.074219 1212.40625 C 792.414062 1212.847656 791.734375 1213.257812 791.03125 1213.632812 C 790.328125 1214.007812 789.613281 1214.347656 788.875 1214.652344 C 788.140625 1214.957031 787.394531 1215.222656 786.632812 1215.453125 C 785.871094 1215.683594 785.101562 1215.878906 784.320312 1216.03125 C 783.539062 1216.1875 782.753906 1216.304688 781.964844 1216.382812 C 781.171875 1216.460938 780.378906 1216.5 779.582031 1216.5 L 747.199219 1216.5 C 746.40625 1216.5 745.613281 1216.460938 744.820312 1216.382812 C 744.027344 1216.304688 743.242188 1216.1875 742.460938 1216.03125 C 741.683594 1215.878906 740.910156 1215.683594 740.152344 1215.453125 C 739.390625 1215.222656 738.640625 1214.957031 737.90625 1214.652344 C 737.171875 1214.347656 736.453125 1214.007812 735.753906 1213.632812 C 735.050781 1213.257812 734.371094 1212.847656 733.707031 1212.40625 C 733.046875 1211.964844 732.410156 1211.492188 731.792969 1210.988281 C 731.179688 1210.484375 730.589844 1209.949219 730.027344 1209.386719 C 729.464844 1208.824219 728.929688 1208.234375 728.425781 1207.621094 C 727.921875 1207.007812 727.449219 1206.367188 727.007812 1205.707031 C 726.566406 1205.046875 726.15625 1204.363281 725.78125 1203.664062 C 725.40625 1202.960938 725.066406 1202.242188 724.761719 1201.507812 C 724.457031 1200.773438 724.191406 1200.027344 723.960938 1199.265625 C 723.730469 1198.503906 723.535156 1197.734375 723.382812 1196.953125 C 723.226562 1196.171875 723.109375 1195.386719 723.03125 1194.597656 C 722.953125 1193.804688 722.914062 1193.011719 722.914062 1192.214844 L 722.914062 941.289062 C 722.914062 940.496094 722.953125 939.703125 723.03125 938.910156 C 723.109375 938.117188 723.226562 937.332031 723.382812 936.554688 C 723.535156 935.773438 723.730469 935.003906 723.960938 934.242188 C 724.191406 933.480469 724.457031 932.734375 724.761719 931.996094 C 725.066406 931.261719 725.40625 930.546875 725.78125 929.84375 C 726.15625 929.140625 726.566406 928.460938 727.007812 927.800781 C 727.449219 927.136719 727.921875 926.5 728.425781 925.886719 C 728.929688 925.269531 729.464844 924.683594 730.027344 924.121094 C 730.589844 923.558594 731.179688 923.023438 731.792969 922.519531 C 732.410156 922.015625 733.046875 921.542969 733.707031 921.101562 C 734.371094 920.65625 735.050781 920.25 735.753906 919.875 C 736.453125 919.5 737.171875 919.160156 737.90625 918.855469 C 738.640625 918.550781 739.390625 918.285156 740.152344 918.054688 C 740.910156 917.824219 741.683594 917.628906 742.460938 917.472656 C 743.242188 917.320312 744.027344 917.203125 744.820312 917.125 C 745.613281 917.046875 746.40625 917.007812 747.199219 917.007812 Z M 747.199219 917.007812 " fill-opacity="1" fill-rule="nonzero"/><path fill="#0ea5e9" d="M 876.730469 811.78125 L 909.109375 811.78125 C 909.90625 811.78125 910.699219 811.820312 911.492188 811.898438 C 912.28125 811.976562 913.070312 812.09375 913.847656 812.246094 C 914.628906 812.402344 915.398438 812.59375 916.160156 812.828125 C 916.921875 813.058594 917.667969 813.324219 918.40625 813.628906 C 919.140625 813.933594 919.859375 814.273438 920.558594 814.648438 C 921.261719 815.023438 921.941406 815.429688 922.601562 815.875 C 923.265625 816.316406 923.902344 816.789062 924.519531 817.292969 C 925.132812 817.796875 925.722656 818.332031 926.285156 818.894531 C 926.847656 819.457031 927.378906 820.042969 927.882812 820.660156 C 928.390625 821.273438 928.863281 821.910156 929.304688 822.574219 C 929.746094 823.234375 930.15625 823.914062 930.53125 824.617188 C 930.902344 825.316406 931.242188 826.035156 931.546875 826.769531 C 931.851562 827.503906 932.121094 828.253906 932.351562 829.015625 C 932.582031 829.777344 932.773438 830.546875 932.929688 831.328125 C 933.085938 832.105469 933.203125 832.890625 933.28125 833.683594 C 933.359375 834.476562 933.398438 835.269531 933.398438 836.0625 L 933.398438 1192.214844 C 933.398438 1193.011719 933.359375 1193.804688 933.28125 1194.597656 C 933.203125 1195.386719 933.085938 1196.171875 932.929688 1196.953125 C 932.773438 1197.734375 932.582031 1198.503906 932.351562 1199.265625 C 932.121094 1200.027344 931.851562 1200.773438 931.546875 1201.507812 C 931.242188 1202.242188 930.902344 1202.960938 930.53125 1203.664062 C 930.15625 1204.363281 929.746094 1205.046875 929.304688 1205.707031 C 928.863281 1206.367188 928.390625 1207.007812 927.882812 1207.621094 C 927.378906 1208.234375 926.847656 1208.824219 926.285156 1209.386719 C 925.722656 1209.949219 925.132812 1210.484375 924.519531 1210.988281 C 923.902344 1211.492188 923.265625 1211.964844 922.601562 1212.40625 C 921.941406 1212.847656 921.261719 1213.257812 920.558594 1213.632812 C 919.859375 1214.007812 919.140625 1214.347656 918.40625 1214.652344 C 917.667969 1214.957031 916.921875 1215.222656 916.160156 1215.453125 C 915.398438 1215.683594 914.628906 1215.878906 913.847656 1216.03125 C 913.070312 1216.1875 912.28125 1216.304688 911.492188 1216.382812 C 910.699219 1216.460938 909.90625 1216.5 909.109375 1216.5 L 876.730469 1216.5 C 875.933594 1216.5 875.140625 1216.460938 874.347656 1216.382812 C 873.554688 1216.304688 872.769531 1216.1875 871.992188 1216.03125 C 871.210938 1215.878906 870.441406 1215.683594 869.679688 1215.453125 C 868.917969 1215.222656 868.167969 1214.957031 867.433594 1214.652344 C 866.699219 1214.347656 865.980469 1214.007812 865.28125 1213.632812 C 864.578125 1213.257812 863.898438 1212.847656 863.234375 1212.40625 C 862.574219 1211.964844 861.9375 1211.492188 861.320312 1210.988281 C 860.707031 1210.484375 860.117188 1209.949219 859.554688 1209.386719 C 858.992188 1208.824219 858.460938 1208.234375 857.953125 1207.621094 C 857.449219 1207.007812 856.976562 1206.367188 856.535156 1205.707031 C 856.09375 1205.046875 855.683594 1204.363281 855.308594 1203.664062 C 854.933594 1202.960938 854.59375 1202.242188 854.289062 1201.507812 C 853.988281 1200.773438 853.71875 1200.027344 853.488281 1199.265625 C 853.257812 1198.503906 853.0625 1197.734375 852.910156 1196.953125 C 852.753906 1196.171875 852.636719 1195.386719 852.558594 1194.597656 C 852.480469 1193.804688 852.441406 1193.011719 852.441406 1192.214844 L 852.441406 836.0625 C 852.441406 835.269531 852.480469 834.476562 852.558594 833.683594 C 852.636719 832.890625 852.753906 832.105469 852.910156 831.328125 C 853.0625 830.546875 853.257812 829.777344 853.488281 829.015625 C 853.71875 828.253906 853.988281 827.503906 854.289062 826.769531 C 854.59375 826.035156 854.933594 825.316406 855.308594 824.617188 C 855.683594 823.914062 856.09375 823.234375 856.535156 822.574219 C 856.976562 821.910156 857.449219 821.273438 857.953125 820.660156 C 858.460938 820.042969 858.992188 819.457031 859.554688 818.894531 C 860.117188 818.332031 860.707031 817.796875 861.320312 817.292969 C 861.9375 816.789062 862.574219 816.316406 863.234375 815.875 C 863.898438 815.429688 864.578125 815.023438 865.28125 814.648438 C 865.980469 814.273438 866.699219 813.933594 867.433594 813.628906 C 868.167969 813.324219 868.917969 813.058594 869.679688 812.828125 C 870.441406 812.59375 871.210938 812.402344 871.992188 812.246094 C 872.769531 812.09375 873.554688 811.976562 874.347656 811.898438 C 875.140625 811.820312 875.933594 811.78125 876.730469 811.78125 Z M 876.730469 811.78125 " fill-opacity="1" fill-rule="nonzero"/><path fill="#00c853" d="M 1006.257812 706.554688 L 1038.636719 706.554688 C 1039.433594 706.554688 1040.226562 706.59375 1041.019531 706.671875 C 1041.8125 706.75 1042.597656 706.867188 1043.375 707.019531 C 1044.15625 707.175781 1044.925781 707.367188 1045.6875 707.597656 C 1046.449219 707.832031 1047.199219 708.097656 1047.933594 708.402344 C 1048.667969 708.707031 1049.386719 709.046875 1050.085938 709.421875 C 1050.789062 709.796875 1051.46875 710.203125 1052.132812 710.644531 C 1052.792969 711.089844 1053.429688 711.5625 1054.046875 712.066406 C 1054.660156 712.570312 1055.25 713.105469 1055.8125 713.667969 C 1056.375 714.230469 1056.90625 714.816406 1057.414062 715.433594 C 1057.917969 716.046875 1058.390625 716.683594 1058.832031 717.347656 C 1059.273438 718.007812 1059.683594 718.6875 1060.058594 719.390625 C 1060.433594 720.089844 1060.773438 720.808594 1061.078125 721.542969 C 1061.378906 722.277344 1061.648438 723.027344 1061.878906 723.789062 C 1062.109375 724.550781 1062.304688 725.320312 1062.457031 726.097656 C 1062.613281 726.878906 1062.730469 727.664062 1062.808594 728.457031 C 1062.886719 729.25 1062.925781 730.042969 1062.925781 730.835938 L 1062.925781 1192.214844 C 1062.925781 1193.011719 1062.886719 1193.804688 1062.808594 1194.597656 C 1062.730469 1195.386719 1062.613281 1196.171875 1062.457031 1196.953125 C 1062.304688 1197.734375 1062.109375 1198.503906 1061.878906 1199.265625 C 1061.648438 1200.027344 1061.378906 1200.773438 1061.078125 1201.507812 C 1060.773438 1202.242188 1060.433594 1202.960938 1060.058594 1203.664062 C 1059.683594 1204.363281 1059.273438 1205.046875 1058.832031 1205.707031 C 1058.390625 1206.367188 1057.917969 1207.007812 1057.414062 1207.621094 C 1056.90625 1208.234375 1056.375 1208.824219 1055.8125 1209.386719 C 1055.25 1209.949219 1054.660156 1210.484375 1054.046875 1210.988281 C 1053.429688 1211.492188 1052.792969 1211.964844 1052.132812 1212.40625 C 1051.46875 1212.847656 1050.789062 1213.257812 1050.085938 1213.632812 C 1049.386719 1214.007812 1048.667969 1214.347656 1047.933594 1214.652344 C 1047.199219 1214.957031 1046.449219 1215.222656 1045.6875 1215.453125 C 1044.925781 1215.683594 1044.15625 1215.878906 1043.375 1216.03125 C 1042.597656 1216.1875 1041.8125 1216.304688 1041.019531 1216.382812 C 1040.226562 1216.460938 1039.433594 1216.5 1038.636719 1216.5 L 1006.257812 1216.5 C 1005.460938 1216.5 1004.667969 1216.460938 1003.875 1216.382812 C 1003.085938 1216.304688 1002.296875 1216.1875 1001.519531 1216.03125 C 1000.738281 1215.878906 999.96875 1215.683594 999.207031 1215.453125 C 998.445312 1215.222656 997.699219 1214.957031 996.960938 1214.652344 C 996.226562 1214.347656 995.507812 1214.007812 994.808594 1213.632812 C 994.105469 1213.257812 993.425781 1212.847656 992.761719 1212.40625 C 992.101562 1211.964844 991.464844 1211.492188 990.847656 1210.988281 C 990.234375 1210.484375 989.644531 1209.949219 989.082031 1209.386719 C 988.519531 1208.824219 987.988281 1208.234375 987.484375 1207.621094 C 986.976562 1207.007812 986.503906 1206.367188 986.0625 1205.707031 C 985.621094 1205.046875 985.210938 1204.363281 984.835938 1203.664062 C 984.460938 1202.960938 984.125 1202.242188 983.820312 1201.507812 C 983.515625 1200.773438 983.246094 1200.027344 983.015625 1199.265625 C 982.785156 1198.503906 982.59375 1197.734375 982.4375 1196.953125 C 982.28125 1196.171875 982.164062 1195.386719 982.085938 1194.597656 C 982.007812 1193.804688 981.96875 1193.011719 981.96875 1192.214844 L 981.96875 730.835938 C 981.96875 730.042969 982.007812 729.25 982.085938 728.457031 C 982.164062 727.664062 982.28125 726.878906 982.4375 726.097656 C 982.59375 725.320312 982.785156 724.550781 983.015625 723.789062 C 983.246094 723.027344 983.515625 722.277344 983.820312 721.542969 C 984.125 720.808594 984.460938 720.089844 984.835938 719.390625 C 985.210938 718.6875 985.621094 718.007812 986.0625 717.347656 C 986.503906 716.683594 986.976562 716.046875 987.484375 715.433594 C 987.988281 714.816406 988.519531 714.230469 989.082031 713.667969 C 989.644531 713.105469 990.234375 712.570312 990.847656 712.066406 C 991.464844 711.5625 992.101562 711.089844 992.761719 710.644531 C 993.425781 710.203125 994.105469 709.796875 994.808594 709.421875 C 995.507812 709.046875 996.226562 708.707031 996.960938 708.402344 C 997.699219 708.097656 998.445312 707.832031 999.207031 707.597656 C 999.96875 707.367188 1000.738281 707.175781 1001.519531 707.019531 C 1002.296875 706.867188 1003.085938 706.75 1003.875 706.671875 C 1004.667969 706.59375 1005.460938 706.554688 1006.257812 706.554688 Z M 1006.257812 706.554688 " fill-opacity="1" fill-rule="nonzero"/></svg>